<?xml version="1.0" encoding="UTF-8"?>
<!DOCTYPE svg PUBLIC "-//W3C//DTD SVG 1.1//EN" "http://www.w3.org/Graphics/SVG/1.1/DTD/svg11.dtd">
<!-- Creator: CorelDRAW 2021.5 -->
<svg xmlns="http://www.w3.org/2000/svg" xml:space="preserve" width="25.4mm" height="25.4mm" version="1.1" style="shape-rendering:geometricPrecision; text-rendering:geometricPrecision; image-rendering:optimizeQuality; fill-rule:evenodd; clip-rule:evenodd"
viewBox="0 0 2540 2540"
 xmlns:xlink="http://www.w3.org/1999/xlink"
 xmlns:xodm="http://www.corel.com/coreldraw/odm/2003">
 <defs>
  <style type="text/css">
   <![CDATA[
    .fil0 {fill:#3F562F}
    .fil3 {fill:#668146}
    .fil2 {fill:#BA4407}
    .fil1 {fill:#D38C1C}
    .fil4 {fill:#D67120}
   ]]>
  </style>
 </defs>
 <g id="Layer_x0020_1">
  <metadata id="CorelCorpID_0Corel-Layer"/>
  <g id="_2021589637744">
   <polygon class="fil0" points="1566.33,2362.19 1566.33,1981.19 1888.07,1981.19 1888.07,1989.66 1896.53,1989.66 1896.53,2353.72 2032,2353.72 2032,2362.19 2159,2362.19 2159,1430.86 2142.06,1430.86 2142.06,1439.33 2125.13,1439.33 2125.13,1447.8 2108.2,1447.8 2108.2,1456.26 2091.26,1456.26 2091.26,1464.73 2074.33,1464.73 2074.33,1473.2 2057.4,1473.2 2057.4,1481.66 2040.46,1481.66 2040.46,1490.13 2023.53,1490.13 2023.53,1498.6 2006.6,1498.6 2006.6,1507.06 1989.66,1507.06 1989.66,1515.53 1972.73,1515.53 1972.73,1524 1955.8,1524 1955.8,1532.46 1938.87,1532.46 1938.87,1540.93 1921.93,1540.93 1921.93,1549.4 1905,1549.4 1905,1557.86 1888.07,1557.86 1888.07,1574.8 1896.53,1574.8 1896.53,1727.19 1574.8,1727.19 1574.8,1718.73 1566.33,1718.73 1566.33,1701.79 1557.87,1701.79 1557.87,1693.33 1549.4,1693.33 1549.4,1684.86 1540.93,1684.86 1540.93,1676.39 1532.47,1676.39 1532.47,1667.93 1524,1667.93 1524,1659.46 1515.53,1659.46 1515.53,1650.99 1507.07,1650.99 1507.07,1642.53 1498.6,1642.53 1498.6,1634.06 1490.13,1634.06 1490.13,1625.59 1481.67,1625.59 1481.67,1617.13 1473.2,1617.13 1473.2,1600.19 1464.73,1600.19 1464.73,1591.73 1456.27,1591.73 1456.27,1583.26 1447.8,1583.26 1447.8,1574.8 1439.33,1574.8 1439.33,1566.33 1430.87,1566.33 1430.87,1557.86 1422.4,1557.86 1422.4,1549.4 1413.93,1549.4 1413.93,1540.93 1405.47,1540.93 1405.47,1532.46 1397,1532.46 1397,1524 1388.53,1524 1388.53,1507.06 1380.07,1507.06 1380.07,1498.6 1371.6,1498.6 1371.6,1490.13 1363.13,1490.13 1363.13,1481.66 1354.67,1481.66 1354.67,1473.2 1346.2,1473.2 1346.2,1464.73 1337.73,1464.73 1337.73,1456.26 1329.27,1456.26 1329.27,1439.33 1320.8,1439.33 1320.8,1430.86 1312.33,1430.86 1312.33,1422.4 1295.4,1422.4 1295.4,2362.19 "/>
   <polygon class="fil0" points="948.27,1718.73 948.27,1727.19 643.47,1727.19 643.47,1710.26 651.93,1710.26 651.93,1693.33 660.4,1693.33 660.4,1676.39 668.87,1676.39 668.87,1659.46 677.33,1659.46 677.33,1642.53 685.8,1642.53 685.8,1625.59 694.27,1625.59 694.27,1600.19 702.73,1600.19 702.73,1583.26 685.8,1583.26 685.8,1574.8 668.87,1574.8 668.87,1566.33 651.93,1566.33 651.93,1557.86 635,1557.86 635,1549.4 618.07,1549.4 618.07,1540.93 592.67,1540.93 592.67,1532.46 584.2,1532.46 584.2,1524 567.27,1524 567.27,1515.53 550.34,1515.53 550.34,1507.06 533.4,1507.06 533.4,1498.6 516.47,1498.6 516.47,1490.13 499.54,1490.13 499.54,1481.66 482.6,1481.66 482.6,1473.2 457.2,1473.2 457.2,1498.6 448.74,1498.6 448.74,1524 440.27,1524 440.27,1540.93 431.8,1540.93 431.8,1557.86 423.34,1557.86 423.34,1566.33 414.87,1566.33 414.87,1591.73 406.4,1591.73 406.4,1608.66 397.94,1608.66 397.94,1625.59 389.47,1625.59 389.47,1642.53 381,1642.53 381,2362.19 643.47,2362.19 643.47,1981.19 965.2,1981.19 965.2,2362.19 1236.13,2362.19 1236.13,1422.4 1227.67,1422.4 1227.67,1430.86 1219.2,1430.86 1219.2,1439.33 1210.73,1439.33 1210.73,1447.8 1202.27,1447.8 1202.27,1456.26 1193.8,1456.26 1193.8,1464.73 1185.33,1464.73 1185.33,1473.2 1176.87,1473.2 1176.87,1490.13 1168.4,1490.13 1168.4,1498.6 1159.93,1498.6 1159.93,1507.06 1151.47,1507.06 1151.47,1515.53 1143,1515.53 1143,1524 1134.53,1524 1134.53,1532.46 1126.07,1532.46 1126.07,1540.93 1117.6,1540.93 1117.6,1549.4 1109.13,1549.4 1109.13,1557.86 1100.67,1557.86 1100.67,1566.33 1092.2,1566.33 1092.2,1583.26 1083.73,1583.26 1083.73,1591.73 1075.27,1591.73 1075.27,1600.19 1066.8,1600.19 1066.8,1608.66 1058.33,1608.66 1058.33,1617.13 1049.87,1617.13 1049.87,1625.59 1041.4,1625.59 1041.4,1634.06 1032.93,1634.06 1032.93,1642.53 1024.47,1642.53 1024.47,1650.99 1016,1650.99 1016,1667.93 1007.53,1667.93 1007.53,1676.39 999.07,1676.39 999.07,1684.86 990.6,1684.86 990.6,1693.33 982.13,1693.33 982.13,1701.79 973.67,1701.79 973.67,1710.26 965.2,1710.26 965.2,1718.73 "/>
   <polygon class="fil1" points="364.07,922.87 355.6,922.87 355.6,939.8 347.14,939.8 347.14,948.27 338.67,948.27 338.67,956.73 330.2,956.73 330.2,965.2 321.74,965.2 321.74,973.66 313.27,973.66 313.27,982.13 304.8,982.13 304.8,990.6 296.34,990.6 296.34,999.06 287.87,999.06 287.87,1007.53 279.4,1007.53 279.4,1024.46 270.94,1024.46 270.94,1032.93 262.47,1032.93 262.47,1041.4 254,1041.4 254,1049.86 245.54,1049.86 245.54,1058.33 237.07,1058.33 237.07,1066.8 228.6,1066.8 228.6,1075.26 220.14,1075.26 220.14,1083.73 211.67,1083.73 211.67,1100.66 203.2,1100.66 203.2,1109.13 194.74,1109.13 194.74,1117.6 186.27,1117.6 186.27,1126.06 177.8,1126.06 177.8,1134.53 169.34,1134.53 169.34,1143 160.87,1143 160.87,1159.93 152.4,1159.93 152.4,1168.4 143.94,1168.4 143.94,1176.86 135.47,1176.86 135.47,1185.33 127,1185.33 127,1193.8 118.54,1193.8 118.54,1202.26 110.07,1202.26 110.07,1210.73 101.6,1210.73 101.6,1236.13 118.54,1236.13 118.54,1244.6 135.47,1244.6 135.47,1253.06 152.4,1253.06 152.4,1261.53 169.34,1261.53 169.34,1270 186.27,1270 186.27,1278.46 203.2,1278.46 203.2,1286.93 220.14,1286.93 220.14,1295.4 237.07,1295.4 237.07,1303.86 254,1303.86 254,1312.33 270.94,1312.33 270.94,1320.8 279.4,1320.8 279.4,1329.26 296.34,1329.26 296.34,1337.73 313.27,1337.73 313.27,1346.2 338.67,1346.2 338.67,1354.66 355.6,1354.66 355.6,1363.13 372.54,1363.13 372.54,1371.6 389.47,1371.6 389.47,1380.06 406.4,1380.06 406.4,1388.53 423.34,1388.53 423.34,1397 440.27,1397 440.27,1405.46 448.74,1405.46 448.74,1413.93 465.67,1413.93 465.67,1422.4 482.6,1422.4 482.6,1430.86 499.54,1430.86 499.54,1439.33 516.47,1439.33 516.47,1447.8 533.4,1447.8 533.4,1456.26 550.34,1456.26 550.34,1464.73 567.27,1464.73 567.27,1473.2 592.67,1473.2 592.67,1481.66 601.13,1481.66 601.13,1490.13 618.07,1490.13 618.07,1498.6 635,1498.6 635,1507.06 651.93,1507.06 651.93,1515.53 668.87,1515.53 668.87,1524 685.8,1524 685.8,1532.46 702.73,1532.46 702.73,1540.93 719.67,1540.93 719.67,1549.4 736.6,1549.4 736.6,1557.86 753.53,1557.86 753.53,1566.33 770.47,1566.33 770.47,1574.8 787.4,1574.8 787.4,1583.26 804.33,1583.26 804.33,1591.73 821.27,1591.73 821.27,1600.19 838.2,1600.19 838.2,1608.66 855.13,1608.66 855.13,1617.13 872.07,1617.13 872.07,1625.59 889,1625.59 889,1634.06 905.93,1634.06 905.93,1642.53 922.87,1642.53 922.87,1650.99 939.8,1650.99 939.8,1659.46 948.27,1659.46 948.27,1650.99 956.73,1650.99 956.73,1642.53 965.2,1642.53 965.2,1634.06 973.67,1634.06 973.67,1625.59 982.13,1625.59 982.13,1617.13 990.6,1617.13 990.6,1608.66 999.07,1608.66 999.07,1591.73 1007.53,1591.73 1007.53,1583.26 1016,1583.26 1016,1574.8 1024.47,1574.8 1024.47,1566.33 1032.93,1566.33 1032.93,1557.86 1041.4,1557.86 1041.4,1549.4 1049.87,1549.4 1049.87,1540.93 1058.33,1540.93 1058.33,1532.46 1066.8,1532.46 1066.8,1524 1075.27,1524 1075.27,1515.53 1083.73,1515.53 1083.73,1507.06 1092.2,1507.06 1092.2,1490.13 1100.67,1490.13 1100.67,1481.66 1109.13,1481.66 1109.13,1473.2 1117.6,1473.2 1117.6,1464.73 1126.07,1464.73 1126.07,1456.26 1134.53,1456.26 1134.53,1447.8 1143,1447.8 1143,1439.33 1151.47,1439.33 1151.47,1430.86 1159.93,1430.86 1159.93,1422.4 1168.4,1422.4 1168.4,1413.93 1176.87,1413.93 1176.87,1405.46 1185.33,1405.46 1185.33,1388.53 1193.8,1388.53 1193.8,1380.06 1202.27,1380.06 1202.27,1371.6 1210.73,1371.6 1210.73,1363.13 1219.2,1363.13 1219.2,1354.66 1227.67,1354.66 1227.67,1346.2 1219.2,1346.2 1219.2,1337.73 1202.27,1337.73 1202.27,1329.26 1185.33,1329.26 1185.33,1320.8 1168.4,1320.8 1168.4,1312.33 1151.47,1312.33 1151.47,1303.86 1134.53,1303.86 1134.53,1295.4 1117.6,1295.4 1117.6,1286.93 1100.67,1286.93 1100.67,1278.46 1083.73,1278.46 1083.73,1270 1066.8,1270 1066.8,1261.53 1049.87,1261.53 1049.87,1253.06 1032.93,1253.06 1032.93,1244.6 1016,1244.6 1016,1236.13 999.07,1236.13 999.07,1227.66 982.13,1227.66 982.13,1219.2 965.2,1219.2 965.2,1210.73 948.27,1210.73 948.27,1202.26 939.8,1202.26 939.8,1193.8 922.87,1193.8 922.87,1185.33 897.47,1185.33 897.47,1176.86 880.53,1176.86 880.53,1168.4 863.6,1168.4 863.6,1159.93 846.67,1159.93 846.67,1151.46 838.2,1151.46 838.2,1143 812.8,1143 812.8,1134.53 795.87,1134.53 795.87,1126.06 778.93,1126.06 778.93,1117.6 770.47,1117.6 770.47,1109.13 753.53,1109.13 753.53,1100.66 736.6,1100.66 736.6,1092.2 711.2,1092.2 711.2,1083.73 702.73,1083.73 702.73,1075.26 685.8,1075.26 685.8,1066.8 668.87,1066.8 668.87,1058.33 651.93,1058.33 651.93,1049.86 635,1049.86 635,1041.4 618.07,1041.4 618.07,1032.93 601.13,1032.93 601.13,1024.46 584.2,1024.46 584.2,1016 567.27,1016 567.27,1007.53 550.34,1007.53 550.34,999.06 533.4,999.06 533.4,990.6 516.47,990.6 516.47,982.13 499.54,982.13 499.54,973.66 482.6,973.66 482.6,965.2 465.67,965.2 465.67,956.73 448.74,956.73 448.74,948.27 431.8,948.27 431.8,939.8 414.87,939.8 414.87,931.33 397.94,931.33 397.94,922.87 381,922.87 381,914.4 364.07,914.4 "/>
   <polygon class="fil1" points="2150.53,922.87 2133.6,922.87 2133.6,931.33 2125.13,931.33 2125.13,939.8 2108.2,939.8 2108.2,948.27 2091.26,948.27 2091.26,956.73 2074.33,956.73 2074.33,965.2 2057.4,965.2 2057.4,973.66 2040.46,973.66 2040.46,982.13 2023.53,982.13 2023.53,990.6 2006.6,990.6 2006.6,999.06 1989.66,999.06 1989.66,1007.53 1972.73,1007.53 1972.73,1016 1955.8,1016 1955.8,1024.46 1938.87,1024.46 1938.87,1032.93 1921.93,1032.93 1921.93,1041.4 1905,1041.4 1905,1049.86 1888.07,1049.86 1888.07,1058.33 1871.13,1058.33 1871.13,1066.8 1854.2,1066.8 1854.2,1075.26 1837.27,1075.26 1837.27,1083.73 1820.33,1083.73 1820.33,1092.2 1803.4,1092.2 1803.4,1100.66 1786.47,1100.66 1786.47,1109.13 1769.53,1109.13 1769.53,1117.6 1752.6,1117.6 1752.6,1126.06 1735.67,1126.06 1735.67,1134.53 1718.73,1134.53 1718.73,1143 1701.8,1143 1701.8,1151.46 1684.87,1151.46 1684.87,1159.93 1667.93,1159.93 1667.93,1168.4 1651,1168.4 1651,1176.86 1634.07,1176.86 1634.07,1185.33 1617.13,1185.33 1617.13,1193.8 1600.2,1193.8 1600.2,1202.26 1583.27,1202.26 1583.27,1210.73 1566.33,1210.73 1566.33,1219.2 1549.4,1219.2 1549.4,1227.66 1532.47,1227.66 1532.47,1236.13 1515.53,1236.13 1515.53,1244.6 1498.6,1244.6 1498.6,1253.06 1481.67,1253.06 1481.67,1261.53 1464.73,1261.53 1464.73,1270 1447.8,1270 1447.8,1278.46 1430.87,1278.46 1430.87,1286.93 1413.93,1286.93 1413.93,1295.4 1397,1295.4 1397,1303.86 1380.07,1303.86 1380.07,1312.33 1363.13,1312.33 1363.13,1320.8 1346.2,1320.8 1346.2,1329.26 1329.27,1329.26 1329.27,1337.73 1312.33,1337.73 1312.33,1346.2 1303.87,1346.2 1303.87,1354.66 1312.33,1354.66 1312.33,1363.13 1320.8,1363.13 1320.8,1371.6 1329.27,1371.6 1329.27,1380.06 1337.73,1380.06 1337.73,1397 1346.2,1397 1346.2,1405.46 1354.67,1405.46 1354.67,1413.93 1363.13,1413.93 1363.13,1422.4 1371.6,1422.4 1371.6,1430.86 1380.07,1430.86 1380.07,1439.33 1388.53,1439.33 1388.53,1447.8 1397,1447.8 1397,1456.26 1405.47,1456.26 1405.47,1464.73 1413.93,1464.73 1413.93,1473.2 1422.4,1473.2 1422.4,1481.66 1430.87,1481.66 1430.87,1498.6 1439.33,1498.6 1439.33,1507.06 1447.8,1507.06 1447.8,1515.53 1456.27,1515.53 1456.27,1524 1464.73,1524 1464.73,1532.46 1473.2,1532.46 1473.2,1540.93 1481.67,1540.93 1481.67,1549.4 1490.13,1549.4 1490.13,1557.86 1498.6,1557.86 1498.6,1566.33 1507.07,1566.33 1507.07,1574.8 1515.53,1574.8 1515.53,1583.26 1524,1583.26 1524,1591.73 1532.47,1591.73 1532.47,1600.19 1540.93,1600.19 1540.93,1617.13 1549.4,1617.13 1549.4,1625.59 1557.87,1625.59 1557.87,1634.06 1566.33,1634.06 1566.33,1642.53 1574.8,1642.53 1574.8,1650.99 1583.27,1650.99 1583.27,1659.46 1591.73,1659.46 1591.73,1650.99 1608.67,1650.99 1608.67,1642.53 1625.6,1642.53 1625.6,1634.06 1642.53,1634.06 1642.53,1625.59 1659.47,1625.59 1659.47,1617.13 1676.4,1617.13 1676.4,1608.66 1693.33,1608.66 1693.33,1600.19 1710.27,1600.19 1710.27,1591.73 1727.2,1591.73 1727.2,1583.26 1744.13,1583.26 1744.13,1574.8 1761.07,1574.8 1761.07,1566.33 1778,1566.33 1778,1557.86 1794.93,1557.86 1794.93,1549.4 1811.87,1549.4 1811.87,1540.93 1828.8,1540.93 1828.8,1532.46 1845.73,1532.46 1845.73,1524 1862.67,1524 1862.67,1515.53 1879.6,1515.53 1879.6,1507.06 1896.53,1507.06 1896.53,1498.6 1913.47,1498.6 1913.47,1490.13 1930.4,1490.13 1930.4,1481.66 1938.87,1481.66 1938.87,1473.2 1955.8,1473.2 1955.8,1464.73 1972.73,1464.73 1972.73,1456.26 1989.66,1456.26 1989.66,1447.8 2015.06,1447.8 2015.06,1439.33 2032,1439.33 2032,1430.86 2048.93,1430.86 2048.93,1422.4 2065.86,1422.4 2065.86,1413.93 2074.33,1413.93 2074.33,1405.46 2091.26,1405.46 2091.26,1397 2108.2,1397 2108.2,1388.53 2125.13,1388.53 2125.13,1380.06 2142.06,1380.06 2142.06,1371.6 2159,1371.6 2159,1363.13 2175.93,1363.13 2175.93,1354.66 2192.86,1354.66 2192.86,1346.2 2209.8,1346.2 2209.8,1337.73 2226.73,1337.73 2226.73,1329.26 2243.66,1329.26 2243.66,1320.8 2260.6,1320.8 2260.6,1312.33 2277.53,1312.33 2277.53,1303.86 2294.46,1303.86 2294.46,1295.4 2311.4,1295.4 2311.4,1286.93 2328.33,1286.93 2328.33,1278.46 2345.26,1278.46 2345.26,1270 2370.66,1270 2370.66,1261.53 2379.13,1261.53 2379.13,1253.06 2396.06,1253.06 2396.06,1244.6 2413,1244.6 2413,1236.13 2429.93,1236.13 2429.93,1227.66 2438.4,1227.66 2438.4,1219.2 2429.93,1219.2 2429.93,1210.73 2421.46,1210.73 2421.46,1202.26 2413,1202.26 2413,1193.8 2404.53,1193.8 2404.53,1185.33 2396.06,1185.33 2396.06,1168.4 2387.6,1168.4 2387.6,1159.93 2379.13,1159.93 2379.13,1151.46 2370.66,1151.46 2370.66,1143 2362.2,1143 2362.2,1134.53 2353.73,1134.53 2353.73,1126.06 2345.26,1126.06 2345.26,1117.6 2336.8,1117.6 2336.8,1109.13 2328.33,1109.13 2328.33,1092.2 2319.86,1092.2 2319.86,1083.73 2311.4,1083.73 2311.4,1075.26 2302.93,1075.26 2302.93,1066.8 2294.46,1066.8 2294.46,1058.33 2286,1058.33 2286,1049.86 2277.53,1049.86 2277.53,1041.4 2269.06,1041.4 2269.06,1032.93 2260.6,1032.93 2260.6,1024.46 2252.13,1024.46 2252.13,1007.53 2243.66,1007.53 2243.66,999.06 2235.2,999.06 2235.2,990.6 2226.73,990.6 2226.73,982.13 2218.26,982.13 2218.26,973.66 2209.8,973.66 2209.8,965.2 2201.33,965.2 2201.33,956.73 2192.86,956.73 2192.86,948.27 2184.4,948.27 2184.4,939.8 2175.93,939.8 2175.93,931.33 2167.46,931.33 2167.46,922.87 2159,922.87 2159,914.4 2150.53,914.4 "/>
   <polygon class="fil2" points="2175.93,855.13 2175.93,846.67 2184.4,846.67 2184.4,838.2 2192.86,838.2 2192.86,829.73 2201.33,829.73 2201.33,821.27 2209.8,821.27 2209.8,812.8 2218.26,812.8 2218.26,795.87 2226.73,795.87 2226.73,787.4 2235.2,787.4 2235.2,778.93 2243.66,778.93 2243.66,770.47 2252.13,770.47 2252.13,762 2260.6,762 2260.6,753.53 2269.06,753.53 2269.06,745.07 2277.53,745.07 2277.53,736.6 2286,736.6 2286,728.13 2294.46,728.13 2294.46,719.67 2302.93,719.67 2302.93,711.2 2311.4,711.2 2311.4,702.73 2319.86,702.73 2319.86,694.27 2328.33,694.27 2328.33,677.33 2345.26,677.33 2345.26,660.4 2353.73,660.4 2353.73,651.93 2362.2,651.93 2362.2,643.47 2370.66,643.47 2370.66,635 2379.13,635 2379.13,626.53 2387.6,626.53 2387.6,618.07 2396.06,618.07 2396.06,609.6 2404.53,609.6 2404.53,601.13 2413,601.13 2413,592.67 2421.46,592.67 2421.46,584.2 2429.93,584.2 2429.93,567.27 2421.46,567.27 2421.46,558.8 2404.53,558.8 2404.53,550.33 2379.13,550.33 2379.13,541.87 2362.2,541.87 2362.2,533.4 2345.26,533.4 2345.26,524.93 2328.33,524.93 2328.33,516.47 2311.4,516.47 2311.4,508 2294.46,508 2294.46,499.53 2277.53,499.53 2277.53,491.07 2260.6,491.07 2260.6,482.6 2243.66,482.6 2243.66,474.13 2218.26,474.13 2218.26,465.67 2201.33,465.67 2201.33,457.2 2184.4,457.2 2184.4,448.73 2167.46,448.73 2167.46,440.27 2150.53,440.27 2150.53,431.8 2133.6,431.8 2133.6,423.33 2116.66,423.33 2116.66,414.87 2099.73,414.87 2099.73,406.4 2082.8,406.4 2082.8,397.93 2057.4,397.93 2057.4,389.47 2040.46,389.47 2040.46,381 2032,381 2032,372.53 2015.06,372.53 2015.06,364.07 1989.66,364.07 1989.66,355.6 1972.73,355.6 1972.73,347.13 1955.8,347.13 1955.8,338.67 1938.87,338.67 1938.87,330.2 1921.93,330.2 1921.93,321.73 1905,321.73 1905,313.27 1879.6,313.27 1879.6,304.8 1862.67,304.8 1862.67,296.34 1854.2,296.34 1854.2,287.87 1837.27,287.87 1837.27,279.4 1820.33,279.4 1820.33,270.94 1803.4,270.94 1803.4,262.47 1786.47,262.47 1786.47,254 1761.07,254 1761.07,245.54 1744.13,245.54 1744.13,237.07 1727.2,237.07 1727.2,228.6 1710.27,228.6 1710.27,220.14 1693.33,220.14 1693.33,211.67 1676.4,211.67 1676.4,203.2 1659.47,203.2 1659.47,194.74 1642.53,194.74 1642.53,186.27 1625.6,186.27 1625.6,177.8 1608.67,177.8 1608.67,169.34 1591.73,169.34 1591.73,160.87 2319.86,160.87 2319.86,152.4 1549.4,152.4 1549.4,160.87 1540.93,160.87 1540.93,169.34 1532.47,169.34 1532.47,177.8 1524,177.8 1524,186.27 1515.53,186.27 1515.53,194.74 1507.07,194.74 1507.07,203.2 1498.6,203.2 1498.6,211.67 1490.13,211.67 1490.13,220.14 1481.67,220.14 1481.67,237.07 1473.2,237.07 1473.2,245.54 1464.73,245.54 1464.73,254 1456.27,254 1456.27,262.47 1447.8,262.47 1447.8,270.94 1439.33,270.94 1439.33,279.4 1430.87,279.4 1430.87,287.87 1422.4,287.87 1422.4,296.34 1413.93,296.34 1413.93,304.8 1405.47,304.8 1405.47,313.27 1397,313.27 1397,321.73 1388.53,321.73 1388.53,330.2 1380.07,330.2 1380.07,338.67 1371.6,338.67 1371.6,347.13 1363.13,347.13 1363.13,364.07 1354.67,364.07 1354.67,372.53 1346.2,372.53 1346.2,381 1337.73,381 1337.73,389.47 1329.27,389.47 1329.27,397.93 1320.8,397.93 1320.8,406.4 1312.33,406.4 1312.33,414.87 1303.87,414.87 1303.87,423.33 1295.4,423.33 1295.4,440.27 1303.87,440.27 1303.87,448.73 1312.33,448.73 1312.33,457.2 1329.27,457.2 1329.27,465.67 1346.2,465.67 1346.2,474.13 1363.13,474.13 1363.13,482.6 1388.53,482.6 1388.53,491.07 1405.47,491.07 1405.47,499.53 1422.4,499.53 1422.4,508 1439.33,508 1439.33,516.47 1456.27,516.47 1456.27,524.93 1473.2,524.93 1473.2,533.4 1490.13,533.4 1490.13,541.87 1507.07,541.87 1507.07,550.33 1524,550.33 1524,558.8 1540.93,558.8 1540.93,567.27 1557.87,567.27 1557.87,575.73 1574.8,575.73 1574.8,584.2 1591.73,584.2 1591.73,592.67 1608.67,592.67 1608.67,601.13 1625.6,601.13 1625.6,609.6 1642.53,609.6 1642.53,618.07 1659.47,618.07 1659.47,626.53 1676.4,626.53 1676.4,635 1693.33,635 1693.33,643.47 1710.27,643.47 1710.27,651.93 1727.2,651.93 1727.2,660.4 1744.13,660.4 1744.13,668.87 1761.07,668.87 1761.07,677.33 1778,677.33 1778,685.8 1794.93,685.8 1794.93,694.27 1811.87,694.27 1811.87,702.73 1828.8,702.73 1828.8,711.2 1845.73,711.2 1845.73,719.67 1862.67,719.67 1862.67,728.13 1888.07,728.13 1888.07,736.6 1896.53,736.6 1896.53,745.07 1913.47,745.07 1913.47,753.53 1930.4,753.53 1930.4,762 1947.33,762 1947.33,770.47 1972.73,770.47 1972.73,778.93 1989.66,778.93 1989.66,787.4 2006.6,787.4 2006.6,795.87 2023.53,795.87 2023.53,804.33 2040.46,804.33 2040.46,812.8 2057.4,812.8 2057.4,821.27 2074.33,821.27 2074.33,829.73 2091.26,829.73 2091.26,838.2 2108.2,838.2 2108.2,846.67 2125.13,846.67 2125.13,855.13 2142.06,855.13 2142.06,863.6 2167.46,863.6 2167.46,855.13 "/>
   <polygon class="fil2" points="228.6,160.87 948.27,160.87 948.27,169.34 931.33,169.34 931.33,177.8 914.4,177.8 914.4,186.27 897.47,186.27 897.47,194.74 880.53,194.74 880.53,203.2 863.6,203.2 863.6,211.67 846.67,211.67 846.67,220.14 829.73,220.14 829.73,228.6 804.33,228.6 804.33,237.07 787.4,237.07 787.4,245.54 770.47,245.54 770.47,254 753.53,254 753.53,262.47 736.6,262.47 736.6,270.94 719.67,270.94 719.67,279.4 702.73,279.4 702.73,287.87 685.8,287.87 685.8,296.34 668.87,296.34 668.87,304.8 651.93,304.8 651.93,313.27 635,313.27 635,321.73 609.6,321.73 609.6,330.2 592.67,330.2 592.67,338.67 575.73,338.67 575.73,347.13 558.8,347.13 558.8,355.6 541.87,355.6 541.87,364.07 524.94,364.07 524.94,372.53 508,372.53 508,381 491.07,381 491.07,389.47 474.14,389.47 474.14,397.93 448.74,397.93 448.74,406.4 440.27,406.4 440.27,414.87 414.87,414.87 414.87,423.33 397.94,423.33 397.94,431.8 381,431.8 381,440.27 364.07,440.27 364.07,448.73 347.14,448.73 347.14,457.2 321.74,457.2 321.74,465.67 304.8,465.67 304.8,474.13 287.87,474.13 287.87,482.6 270.94,482.6 270.94,491.07 254,491.07 254,499.53 237.07,499.53 237.07,508 220.14,508 220.14,516.47 203.2,516.47 203.2,524.93 186.27,524.93 186.27,533.4 160.87,533.4 160.87,541.87 143.94,541.87 143.94,550.33 127,550.33 127,558.8 118.54,558.8 118.54,567.27 101.6,567.27 101.6,584.2 110.07,584.2 110.07,601.13 118.54,601.13 118.54,609.6 127,609.6 127,618.07 143.94,618.07 143.94,626.53 152.4,626.53 152.4,643.47 160.87,643.47 160.87,651.93 169.34,651.93 169.34,660.4 186.27,660.4 186.27,668.87 194.74,668.87 194.74,685.8 203.2,685.8 203.2,694.27 211.67,694.27 211.67,702.73 220.14,702.73 220.14,711.2 228.6,711.2 228.6,719.67 237.07,719.67 237.07,728.13 245.54,728.13 245.54,736.6 254,736.6 254,745.07 262.47,745.07 262.47,753.53 270.94,753.53 270.94,762 279.4,762 279.4,770.47 287.87,770.47 287.87,778.93 296.34,778.93 296.34,787.4 304.8,787.4 304.8,804.33 313.27,804.33 313.27,812.8 321.74,812.8 321.74,821.27 330.2,821.27 330.2,829.73 338.67,829.73 338.67,838.2 347.14,838.2 347.14,846.67 355.6,846.67 355.6,863.6 389.47,863.6 389.47,855.13 406.4,855.13 406.4,846.67 423.34,846.67 423.34,838.2 440.27,838.2 440.27,829.73 457.2,829.73 457.2,821.27 474.14,821.27 474.14,812.8 491.07,812.8 491.07,804.33 508,804.33 508,795.87 524.94,795.87 524.94,787.4 541.87,787.4 541.87,778.93 558.8,778.93 558.8,770.47 575.73,770.47 575.73,762 592.67,762 592.67,753.53 618.07,753.53 618.07,745.07 635,745.07 635,736.6 643.47,736.6 643.47,728.13 660.4,728.13 660.4,719.67 677.33,719.67 677.33,711.2 694.27,711.2 694.27,702.73 719.67,702.73 719.67,694.27 728.13,694.27 728.13,685.8 745.07,685.8 745.07,677.33 770.47,677.33 770.47,668.87 787.4,668.87 787.4,660.4 804.33,660.4 804.33,651.93 821.27,651.93 821.27,643.47 838.2,643.47 838.2,635 855.13,635 855.13,626.53 872.07,626.53 872.07,618.07 889,618.07 889,609.6 905.93,609.6 905.93,601.13 922.87,601.13 922.87,592.67 939.8,592.67 939.8,584.2 956.73,584.2 956.73,575.73 973.67,575.73 973.67,567.27 990.6,567.27 990.6,558.8 1007.53,558.8 1007.53,550.33 1024.47,550.33 1024.47,541.87 1041.4,541.87 1041.4,533.4 1058.33,533.4 1058.33,524.93 1075.27,524.93 1075.27,516.47 1092.2,516.47 1092.2,508 1109.13,508 1109.13,499.53 1126.07,499.53 1126.07,491.07 1143,491.07 1143,482.6 1159.93,482.6 1159.93,474.13 1176.87,474.13 1176.87,465.67 1193.8,465.67 1193.8,457.2 1210.73,457.2 1210.73,448.73 1227.67,448.73 1227.67,440.27 1236.13,440.27 1236.13,423.33 1227.67,423.33 1227.67,414.87 1219.2,414.87 1219.2,406.4 1210.73,406.4 1210.73,397.93 1202.27,397.93 1202.27,389.47 1193.8,389.47 1193.8,381 1185.33,381 1185.33,372.53 1176.87,372.53 1176.87,364.07 1168.4,364.07 1168.4,355.6 1159.93,355.6 1159.93,338.67 1151.47,338.67 1151.47,330.2 1143,330.2 1143,321.73 1134.53,321.73 1134.53,313.27 1126.07,313.27 1126.07,304.8 1117.6,304.8 1117.6,296.34 1109.13,296.34 1109.13,287.87 1100.67,287.87 1100.67,279.4 1092.2,279.4 1092.2,270.94 1083.73,270.94 1083.73,262.47 1075.27,262.47 1075.27,254 1066.8,254 1066.8,237.07 1058.33,237.07 1058.33,228.6 1049.87,228.6 1049.87,220.14 1041.4,220.14 1041.4,211.67 1032.93,211.67 1032.93,203.2 1024.47,203.2 1024.47,194.74 1016,194.74 1016,186.27 1007.53,186.27 1007.53,177.8 999.07,177.8 999.07,169.34 990.6,169.34 990.6,160.87 982.13,160.87 982.13,152.4 228.6,152.4 "/>
   <polygon class="fil1" points="1270,1295.4 1286.93,1295.4 1286.93,1286.93 1303.87,1286.93 1303.87,1278.46 1320.8,1278.46 1320.8,1270 1337.73,1270 1337.73,1261.53 1354.67,1261.53 1354.67,1253.06 1371.6,1253.06 1371.6,1244.6 1388.53,1244.6 1388.53,1236.13 1405.47,1236.13 1405.47,1227.66 1422.4,1227.66 1422.4,1219.2 1447.8,1219.2 1447.8,1210.73 1464.73,1210.73 1464.73,1202.26 1481.67,1202.26 1481.67,1193.8 1490.13,1193.8 1490.13,1185.33 1507.07,1185.33 1507.07,1176.86 1524,1176.86 1524,1168.4 1540.93,1168.4 1540.93,1159.93 1557.87,1159.93 1557.87,1151.46 1574.8,1151.46 1574.8,1143 1591.73,1143 1591.73,1134.53 1608.67,1134.53 1608.67,1126.06 1625.6,1126.06 1625.6,1117.6 1642.53,1117.6 1642.53,1109.13 1659.47,1109.13 1659.47,1100.66 1676.4,1100.66 1676.4,1092.2 1693.33,1092.2 1693.33,1083.73 1710.27,1083.73 1710.27,1075.26 1727.2,1075.26 1727.2,1066.8 1752.6,1066.8 1752.6,1058.33 1769.53,1058.33 1769.53,1049.86 1786.47,1049.86 1786.47,1041.4 1803.4,1041.4 1803.4,1032.93 1811.87,1032.93 1811.87,1024.46 1828.8,1024.46 1828.8,1016 1845.73,1016 1845.73,1007.53 1862.67,1007.53 1862.67,999.06 1879.6,999.06 1879.6,990.6 1896.53,990.6 1896.53,982.13 1913.47,982.13 1913.47,973.66 1930.4,973.66 1930.4,965.2 1947.33,965.2 1947.33,956.73 1964.26,956.73 1964.26,948.27 1981.2,948.27 1981.2,939.8 1998.13,939.8 1998.13,931.33 2015.06,931.33 2015.06,922.87 2032,922.87 2032,914.4 2048.93,914.4 2048.93,905.93 2065.86,905.93 2065.86,897.47 2082.8,897.47 2082.8,889 2074.33,889 2074.33,880.53 2057.4,880.53 2057.4,872.07 2048.93,872.07 2048.93,863.6 2032,863.6 2032,855.13 2006.6,855.13 2006.6,846.67 1989.66,846.67 1989.66,838.2 1972.73,838.2 1972.73,829.73 1955.8,829.73 1955.8,821.27 1938.87,821.27 1938.87,812.8 1921.93,812.8 1921.93,804.33 1905,804.33 1905,795.87 1888.07,795.87 1888.07,787.4 1871.13,787.4 1871.13,778.93 1854.2,778.93 1854.2,770.47 1837.27,770.47 1837.27,762 1820.33,762 1820.33,753.53 1803.4,753.53 1803.4,745.07 1778,745.07 1778,736.6 1761.07,736.6 1761.07,728.13 1744.13,728.13 1744.13,719.67 1727.2,719.67 1727.2,711.2 1710.27,711.2 1710.27,702.73 1693.33,702.73 1693.33,694.27 1676.4,694.27 1676.4,685.8 1659.47,685.8 1659.47,677.33 1642.53,677.33 1642.53,668.87 1625.6,668.87 1625.6,660.4 1608.67,660.4 1608.67,651.93 1591.73,651.93 1591.73,643.47 1574.8,643.47 1574.8,635 1557.87,635 1557.87,626.53 1540.93,626.53 1540.93,618.07 1524,618.07 1524,609.6 1507.07,609.6 1507.07,601.13 1490.13,601.13 1490.13,592.67 1473.2,592.67 1473.2,584.2 1456.27,584.2 1456.27,575.73 1439.33,575.73 1439.33,567.27 1422.4,567.27 1422.4,558.8 1405.47,558.8 1405.47,550.33 1388.53,550.33 1388.53,541.87 1371.6,541.87 1371.6,533.4 1346.2,533.4 1346.2,524.93 1337.73,524.93 1337.73,516.47 1320.8,516.47 1320.8,508 1303.87,508 1303.87,499.53 1278.47,499.53 1278.47,491.07 1261.53,491.07 1261.53,1278.46 1270,1278.46 "/>
   <polygon class="fil3" points="381,2362.19 381,1642.53 389.47,1642.53 389.47,1625.59 397.94,1625.59 397.94,1608.66 406.4,1608.66 406.4,1591.73 414.87,1591.73 414.87,1566.33 423.34,1566.33 423.34,1557.86 431.8,1557.86 431.8,1540.93 440.27,1540.93 440.27,1524 448.74,1524 448.74,1498.6 457.2,1498.6 457.2,1473.2 465.67,1473.2 465.67,1464.73 448.74,1464.73 448.74,1456.26 431.8,1456.26 431.8,1447.8 406.4,1447.8 406.4,1439.33 397.94,1439.33 397.94,1430.86 381,1430.86 381,1422.4 364.07,1422.4 364.07,1413.93 347.14,1413.93 347.14,1405.46 330.2,1405.46 330.2,1397 313.27,1397 313.27,1388.53 296.34,1388.53 296.34,1380.06 279.4,1380.06 279.4,1371.6 262.47,1371.6 262.47,1363.13 245.54,1363.13 245.54,1354.66 228.6,1354.66 228.6,1346.2 211.67,1346.2 211.67,1337.73 194.74,1337.73 194.74,1329.26 177.8,1329.26 177.8,1320.8 160.87,1320.8 160.87,1312.33 143.94,1312.33 143.94,1303.86 127,1303.86 127,1295.4 110.07,1295.4 110.07,1286.93 93.14,1286.93 93.14,2362.19 "/>
   <polygon class="fil3" points="2159,2362.19 2446.86,2362.19 2446.86,2311.39 2438.4,2311.39 2438.4,2235.19 2446.86,2235.19 2446.86,2209.79 2438.4,2209.79 2438.4,2201.33 2446.86,2201.33 2446.86,1380.06 2438.4,1380.06 2438.4,1312.33 2446.86,1312.33 2446.86,1286.93 2429.93,1286.93 2429.93,1295.4 2413,1295.4 2413,1303.86 2396.06,1303.86 2396.06,1312.33 2379.13,1312.33 2379.13,1320.8 2362.2,1320.8 2362.2,1329.26 2345.26,1329.26 2345.26,1337.73 2328.33,1337.73 2328.33,1346.2 2311.4,1346.2 2311.4,1354.66 2294.46,1354.66 2294.46,1363.13 2277.53,1363.13 2277.53,1371.6 2260.6,1371.6 2260.6,1380.06 2243.66,1380.06 2243.66,1388.53 2226.73,1388.53 2226.73,1397 2209.8,1397 2209.8,1405.46 2192.86,1405.46 2192.86,1413.93 2175.93,1413.93 2175.93,1422.4 2159,1422.4 "/>
   <polygon class="fil2" points="677.33,1007.53 685.8,1007.53 685.8,1016 702.73,1016 702.73,1024.46 719.67,1024.46 719.67,1032.93 736.6,1032.93 736.6,1041.4 753.53,1041.4 753.53,1049.86 770.47,1049.86 770.47,1058.33 787.4,1058.33 787.4,1066.8 795.87,1066.8 795.87,1075.26 821.27,1075.26 821.27,1083.73 838.2,1083.73 838.2,1092.2 855.13,1092.2 855.13,1100.66 872.07,1100.66 872.07,1109.13 889,1109.13 889,1117.6 905.93,1117.6 905.93,1126.06 914.4,1126.06 914.4,1117.6 922.87,1117.6 922.87,1100.66 931.33,1100.66 931.33,1083.73 939.8,1083.73 939.8,1066.8 948.27,1066.8 948.27,1049.86 956.73,1049.86 956.73,1032.93 965.2,1032.93 965.2,1016 973.67,1016 973.67,999.06 982.13,999.06 982.13,982.13 990.6,982.13 990.6,965.2 999.07,965.2 999.07,1168.4 1007.53,1168.4 1007.53,1176.86 1024.47,1176.86 1024.47,1185.33 1041.4,1185.33 1041.4,1193.8 1058.33,1193.8 1058.33,1202.26 1075.27,1202.26 1075.27,1210.73 1092.2,1210.73 1092.2,1219.2 1109.13,1219.2 1109.13,1227.66 1126.07,1227.66 1126.07,1236.13 1143,1236.13 1143,1244.6 1159.93,1244.6 1159.93,1253.06 1176.87,1253.06 1176.87,1261.53 1193.8,1261.53 1193.8,1270 1202.27,1270 1202.27,1278.46 1227.67,1278.46 1227.67,1286.93 1244.6,1286.93 1244.6,1295.4 1261.53,1295.4 1261.53,1303.86 1270,1303.86 1270,1278.46 1261.53,1278.46 1261.53,491.07 1244.6,491.07 1244.6,499.53 1227.67,499.53 1227.67,508 1210.73,508 1210.73,516.47 1193.8,516.47 1193.8,524.93 1176.87,524.93 1176.87,533.4 1168.4,533.4 1168.4,541.87 1151.47,541.87 1151.47,550.33 1126.07,550.33 1126.07,558.8 1109.13,558.8 1109.13,567.27 1092.2,567.27 1092.2,575.73 1075.27,575.73 1075.27,584.2 1058.33,584.2 1058.33,592.67 1041.4,592.67 1041.4,601.13 1024.47,601.13 1024.47,609.6 1007.53,609.6 1007.53,618.07 990.6,618.07 990.6,626.53 973.67,626.53 973.67,635 956.73,635 956.73,643.47 939.8,643.47 939.8,651.93 922.87,651.93 922.87,660.4 905.93,660.4 905.93,668.87 889,668.87 889,677.33 872.07,677.33 872.07,685.8 855.13,685.8 855.13,694.27 838.2,694.27 838.2,702.73 821.27,702.73 821.27,711.2 804.33,711.2 804.33,736.6 795.87,736.6 795.87,753.53 787.4,753.53 787.4,770.47 778.93,770.47 778.93,795.87 770.47,795.87 770.47,812.8 762,812.8 762,829.73 753.53,829.73 753.53,846.67 745.07,846.67 745.07,872.07 736.6,872.07 736.6,889 728.13,889 728.13,905.93 719.67,905.93 719.67,922.87 711.2,922.87 711.2,939.8 702.73,939.8 702.73,956.73 694.27,956.73 694.27,982.13 685.8,982.13 685.8,999.06 677.33,999.06 "/>
   <polygon class="fil4" points="2175.93,855.13 2184.4,855.13 2184.4,863.6 2192.86,863.6 2192.86,872.07 2201.33,872.07 2201.33,880.53 2209.8,880.53 2209.8,889 2218.26,889 2218.26,905.93 2226.73,905.93 2226.73,914.4 2235.2,914.4 2235.2,922.87 2243.66,922.87 2243.66,931.33 2252.13,931.33 2252.13,939.8 2260.6,939.8 2260.6,948.27 2269.06,948.27 2269.06,956.73 2277.53,956.73 2277.53,965.2 2286,965.2 2286,973.66 2294.46,973.66 2294.46,990.6 2302.93,990.6 2302.93,999.06 2311.4,999.06 2311.4,1007.53 2319.86,1007.53 2319.86,1016 2328.33,1016 2328.33,1024.46 2336.8,1024.46 2336.8,1032.93 2345.26,1032.93 2345.26,1041.4 2353.73,1041.4 2353.73,1058.33 2362.2,1058.33 2362.2,1066.8 2370.66,1066.8 2370.66,1075.26 2379.13,1075.26 2379.13,1083.73 2387.6,1083.73 2387.6,1092.2 2396.06,1092.2 2396.06,1100.66 2404.53,1100.66 2404.53,1109.13 2413,1109.13 2413,1117.6 2421.46,1117.6 2421.46,1126.06 2429.93,1126.06 2429.93,1134.53 2438.4,1134.53 2438.4,270.94 2429.93,270.94 2429.93,245.54 2421.46,245.54 2421.46,228.6 2413,228.6 2413,220.14 2404.53,220.14 2404.53,203.2 2396.06,203.2 2396.06,194.74 2387.6,194.74 2387.6,186.27 2370.66,186.27 2370.66,177.8 2362.2,177.8 2362.2,169.34 2345.26,169.34 2345.26,160.87 1591.73,160.87 1591.73,169.34 1608.67,169.34 1608.67,177.8 1625.6,177.8 1625.6,186.27 1642.53,186.27 1642.53,194.74 1659.47,194.74 1659.47,203.2 1676.4,203.2 1676.4,211.67 1693.33,211.67 1693.33,220.14 1710.27,220.14 1710.27,228.6 1727.2,228.6 1727.2,237.07 1744.13,237.07 1744.13,245.54 1761.07,245.54 1761.07,254 1786.47,254 1786.47,262.47 1803.4,262.47 1803.4,270.94 1820.33,270.94 1820.33,279.4 1837.27,279.4 1837.27,287.87 1854.2,287.87 1854.2,296.34 1862.67,296.34 1862.67,304.8 1879.6,304.8 1879.6,313.27 1905,313.27 1905,321.73 1921.93,321.73 1921.93,330.2 1938.87,330.2 1938.87,338.67 1955.8,338.67 1955.8,347.13 1972.73,347.13 1972.73,355.6 1989.66,355.6 1989.66,364.07 2015.06,364.07 2015.06,372.53 2032,372.53 2032,381 2040.46,381 2040.46,389.47 2057.4,389.47 2057.4,397.93 2082.8,397.93 2082.8,406.4 2099.73,406.4 2099.73,414.87 2116.66,414.87 2116.66,423.33 2133.6,423.33 2133.6,431.8 2150.53,431.8 2150.53,440.27 2167.46,440.27 2167.46,448.73 2184.4,448.73 2184.4,457.2 2201.33,457.2 2201.33,465.67 2218.26,465.67 2218.26,474.13 2243.66,474.13 2243.66,482.6 2260.6,482.6 2260.6,491.07 2277.53,491.07 2277.53,499.53 2294.46,499.53 2294.46,508 2311.4,508 2311.4,516.47 2328.33,516.47 2328.33,524.93 2345.26,524.93 2345.26,533.4 2362.2,533.4 2362.2,541.87 2379.13,541.87 2379.13,550.33 2404.53,550.33 2404.53,558.8 2421.46,558.8 2421.46,567.27 2429.93,567.27 2429.93,584.2 2421.46,584.2 2421.46,592.67 2413,592.67 2413,601.13 2404.53,601.13 2404.53,609.6 2396.06,609.6 2396.06,618.07 2387.6,618.07 2387.6,626.53 2379.13,626.53 2379.13,635 2370.66,635 2370.66,643.47 2362.2,643.47 2362.2,651.93 2353.73,651.93 2353.73,660.4 2345.26,660.4 2345.26,677.33 2328.33,677.33 2328.33,694.27 2319.86,694.27 2319.86,702.73 2311.4,702.73 2311.4,711.2 2302.93,711.2 2302.93,719.67 2294.46,719.67 2294.46,728.13 2286,728.13 2286,736.6 2277.53,736.6 2277.53,745.07 2269.06,745.07 2269.06,753.53 2260.6,753.53 2260.6,762 2252.13,762 2252.13,770.47 2243.66,770.47 2243.66,778.93 2235.2,778.93 2235.2,787.4 2226.73,787.4 2226.73,795.87 2218.26,795.87 2218.26,812.8 2209.8,812.8 2209.8,821.27 2201.33,821.27 2201.33,829.73 2192.86,829.73 2192.86,838.2 2184.4,838.2 2184.4,846.67 2175.93,846.67 "/>
   <polygon class="fil4" points="355.6,855.13 355.6,846.67 347.14,846.67 347.14,838.2 338.67,838.2 338.67,829.73 330.2,829.73 330.2,821.27 321.74,821.27 321.74,812.8 313.27,812.8 313.27,804.33 304.8,804.33 304.8,787.4 296.34,787.4 296.34,778.93 287.87,778.93 287.87,770.47 279.4,770.47 279.4,762 270.94,762 270.94,753.53 262.47,753.53 262.47,745.07 254,745.07 254,736.6 245.54,736.6 245.54,728.13 237.07,728.13 237.07,719.67 228.6,719.67 228.6,711.2 220.14,711.2 220.14,702.73 211.67,702.73 211.67,694.27 203.2,694.27 203.2,685.8 194.74,685.8 194.74,668.87 186.27,668.87 186.27,660.4 169.34,660.4 169.34,651.93 160.87,651.93 160.87,643.47 152.4,643.47 152.4,626.53 143.94,626.53 143.94,618.07 127,618.07 127,609.6 118.54,609.6 118.54,601.13 110.07,601.13 110.07,584.2 101.6,584.2 101.6,567.27 118.54,567.27 118.54,558.8 127,558.8 127,550.33 143.94,550.33 143.94,541.87 160.87,541.87 160.87,533.4 186.27,533.4 186.27,524.93 203.2,524.93 203.2,516.47 220.14,516.47 220.14,508 237.07,508 237.07,499.53 254,499.53 254,491.07 270.94,491.07 270.94,482.6 287.87,482.6 287.87,474.13 304.8,474.13 304.8,465.67 321.74,465.67 321.74,457.2 347.14,457.2 347.14,448.73 364.07,448.73 364.07,440.27 381,440.27 381,431.8 397.94,431.8 397.94,423.33 414.87,423.33 414.87,414.87 440.27,414.87 440.27,406.4 448.74,406.4 448.74,397.93 474.14,397.93 474.14,389.47 491.07,389.47 491.07,381 508,381 508,372.53 524.94,372.53 524.94,364.07 541.87,364.07 541.87,355.6 558.8,355.6 558.8,347.13 575.73,347.13 575.73,338.67 592.67,338.67 592.67,330.2 609.6,330.2 609.6,321.73 635,321.73 635,313.27 651.93,313.27 651.93,304.8 668.87,304.8 668.87,296.34 685.8,296.34 685.8,287.87 702.73,287.87 702.73,279.4 719.67,279.4 719.67,270.94 736.6,270.94 736.6,262.47 753.53,262.47 753.53,254 770.47,254 770.47,245.54 787.4,245.54 787.4,237.07 804.33,237.07 804.33,228.6 829.73,228.6 829.73,220.14 846.67,220.14 846.67,211.67 863.6,211.67 863.6,203.2 880.53,203.2 880.53,194.74 897.47,194.74 897.47,186.27 914.4,186.27 914.4,177.8 931.33,177.8 931.33,169.34 948.27,169.34 948.27,160.87 203.2,160.87 203.2,169.34 186.27,169.34 186.27,177.8 169.34,177.8 169.34,186.27 160.87,186.27 160.87,194.74 152.4,194.74 152.4,203.2 143.94,203.2 143.94,211.67 135.47,211.67 135.47,220.14 127,220.14 127,237.07 118.54,237.07 118.54,245.54 110.07,245.54 110.07,262.47 101.6,262.47 101.6,296.34 93.14,296.34 93.14,1134.53 101.6,1134.53 101.6,1126.06 110.07,1126.06 110.07,1117.6 118.54,1117.6 118.54,1109.13 127,1109.13 127,1100.66 135.47,1100.66 135.47,1092.2 143.94,1092.2 143.94,1083.73 152.4,1083.73 152.4,1075.26 160.87,1075.26 160.87,1066.8 169.34,1066.8 169.34,1049.86 177.8,1049.86 177.8,1041.4 186.27,1041.4 186.27,1032.93 194.74,1032.93 194.74,1024.46 203.2,1024.46 203.2,1016 211.67,1016 211.67,1007.53 220.14,1007.53 220.14,999.06 228.6,999.06 228.6,990.6 237.07,990.6 237.07,973.66 245.54,973.66 245.54,965.2 254,965.2 254,956.73 262.47,956.73 262.47,948.27 270.94,948.27 270.94,939.8 279.4,939.8 279.4,931.33 287.87,931.33 287.87,922.87 296.34,922.87 296.34,914.4 304.8,914.4 304.8,897.47 313.27,897.47 313.27,889 321.74,889 321.74,880.53 330.2,880.53 330.2,872.07 338.67,872.07 338.67,863.6 347.14,863.6 347.14,855.13 "/>
   <polygon class="fil3" points="2032,2362.19 2032,2353.72 1896.53,2353.72 1896.53,1989.66 1888.07,1989.66 1888.07,1981.19 1566.33,1981.19 1566.33,2362.19 "/>
   <polygon class="fil3" points="965.2,2362.19 965.2,1981.19 643.47,1981.19 643.47,2362.19 "/>
   <polygon class="fil1" points="677.33,1007.53 677.33,999.06 685.8,999.06 685.8,982.13 694.27,982.13 694.27,956.73 702.73,956.73 702.73,939.8 711.2,939.8 711.2,922.87 719.67,922.87 719.67,905.93 728.13,905.93 728.13,889 736.6,889 736.6,872.07 745.07,872.07 745.07,846.67 753.53,846.67 753.53,829.73 762,829.73 762,812.8 770.47,812.8 770.47,795.87 778.93,795.87 778.93,770.47 787.4,770.47 787.4,753.53 795.87,753.53 795.87,736.6 804.33,736.6 804.33,719.67 787.4,719.67 787.4,728.13 770.47,728.13 770.47,736.6 745.07,736.6 745.07,745.07 728.13,745.07 728.13,753.53 711.2,753.53 711.2,762 694.27,762 694.27,770.47 677.33,770.47 677.33,778.93 660.4,778.93 660.4,787.4 643.47,787.4 643.47,795.87 626.53,795.87 626.53,804.33 609.6,804.33 609.6,812.8 592.67,812.8 592.67,821.27 575.73,821.27 575.73,829.73 558.8,829.73 558.8,838.2 541.87,838.2 541.87,846.67 524.94,846.67 524.94,855.13 508,855.13 508,863.6 491.07,863.6 491.07,872.07 465.67,872.07 465.67,880.53 457.2,880.53 457.2,889 448.74,889 448.74,897.47 465.67,897.47 465.67,905.93 482.6,905.93 482.6,914.4 499.54,914.4 499.54,922.87 516.47,922.87 516.47,931.33 533.4,931.33 533.4,939.8 550.34,939.8 550.34,948.27 567.27,948.27 567.27,956.73 584.2,956.73 584.2,965.2 601.13,965.2 601.13,973.66 618.07,973.66 618.07,982.13 635,982.13 635,990.6 651.93,990.6 651.93,999.06 668.87,999.06 668.87,1007.53 "/>
   <polygon class="fil3" points="1574.8,1718.73 1574.8,1727.19 1896.53,1727.19 1896.53,1574.8 1888.07,1574.8 1888.07,1566.33 1871.13,1566.33 1871.13,1574.8 1854.2,1574.8 1854.2,1583.26 1837.27,1583.26 1837.27,1591.73 1820.33,1591.73 1820.33,1600.19 1803.4,1600.19 1803.4,1608.66 1786.47,1608.66 1786.47,1617.13 1769.53,1617.13 1769.53,1625.59 1752.6,1625.59 1752.6,1634.06 1735.67,1634.06 1735.67,1642.53 1718.73,1642.53 1718.73,1650.99 1701.8,1650.99 1701.8,1659.46 1684.87,1659.46 1684.87,1667.93 1667.93,1667.93 1667.93,1676.39 1659.47,1676.39 1659.47,1684.86 1642.53,1684.86 1642.53,1693.33 1625.6,1693.33 1625.6,1701.79 1608.67,1701.79 1608.67,1710.26 1591.73,1710.26 1591.73,1718.73 "/>
   <polygon class="fil3" points="702.73,1591.73 702.73,1600.19 694.27,1600.19 694.27,1625.59 685.8,1625.59 685.8,1642.53 677.33,1642.53 677.33,1659.46 668.87,1659.46 668.87,1676.39 660.4,1676.39 660.4,1693.33 651.93,1693.33 651.93,1710.26 643.47,1710.26 643.47,1727.19 948.27,1727.19 948.27,1710.26 931.33,1710.26 931.33,1701.79 914.4,1701.79 914.4,1693.33 897.47,1693.33 897.47,1684.86 880.53,1684.86 880.53,1676.39 863.6,1676.39 863.6,1667.93 846.67,1667.93 846.67,1659.46 829.73,1659.46 829.73,1650.99 812.8,1650.99 812.8,1642.53 795.87,1642.53 795.87,1634.06 778.93,1634.06 778.93,1625.59 762,1625.59 762,1617.13 745.07,1617.13 745.07,1608.66 728.13,1608.66 728.13,1600.19 711.2,1600.19 711.2,1591.73 "/>
   <polygon class="fil1" points="914.4,1126.06 922.87,1126.06 922.87,1134.53 939.8,1134.53 939.8,1143 956.73,1143 956.73,1151.46 973.67,1151.46 973.67,1159.93 990.6,1159.93 990.6,1168.4 999.07,1168.4 999.07,965.2 990.6,965.2 990.6,982.13 982.13,982.13 982.13,999.06 973.67,999.06 973.67,1016 965.2,1016 965.2,1032.93 956.73,1032.93 956.73,1049.86 948.27,1049.86 948.27,1066.8 939.8,1066.8 939.8,1083.73 931.33,1083.73 931.33,1100.66 922.87,1100.66 922.87,1117.6 914.4,1117.6 "/>
  </g>
 </g>
</svg>
